# xmcd
#
# Track frame offsets:
#	150
#	22805
#	41639
#	63488
#	83404
#	105288
#	124170
#	142965
#	164035
#	190031
#	208611
#	229635
#	251903
#	272879
#	294212
#
# Disc length: 4233 seconds
#
# Revision: 2
# Processed by: cddbd v1.5PL3 Copyright (c) Steve Scherf et al.
# Submitted via: MusicWizard 6.0.2
#
DISCID=ca10870f
DTITLE=Celine Dion - Let's talk about Love
DYEAR=1900
DGENRE=Pop
TTITLE0=The Reason
TTITLE1=Immortality
TTITLE2=Why oh why
TTITLE3=Love is on the way
TTITLE4=Tell him
TTITLE5=Amar haciendoel amor
TTITLE6=When I need you
TTITLE7=Miles to go (before I sleep)
TTITLE8=Us
TTITLE9=Just a little bit of love
TTITLE10=My heart will go on
TTITLE11=Where is the love
TTITLE12=Be the man
TTITLE13=I hate you when I love you
TTITLE14=Let's talk about love
EXTD=
EXTT0=
EXTT1=
EXTT2=
EXTT3=
EXTT4=Duet with Barbara Streisand
EXTT5=
EXTT6=
EXTT7=
EXTT8=
EXTT9=
EXTT10=love theme from 'Titanic'
EXTT11=
EXTT12=
EXTT13=duet with Luciano Pavarotti
EXTT14=
PLAYORDER=
